<svg xmlns="http://www.w3.org/2000/svg" viewBox="0 0 600 360"><rect width="600" height="360" fill="#fdeccc"/><circle cx="300" cy="180" r="146" fill="#fbdca4"/><circle cx="300" cy="180" r="170" fill="none" stroke="#e0a43a" stroke-width="3" stroke-dasharray="1 13" stroke-linecap="round"/><circle cx="64" cy="70" r="5" fill="#efc27a"/><circle cx="96" cy="300" r="5" fill="#efc27a"/><circle cx="536" cy="62" r="5" fill="#efc27a"/><circle cx="520" cy="292" r="5" fill="#efc27a"/><circle cx="40" cy="196" r="5" fill="#efc27a"/><circle cx="566" cy="186" r="5" fill="#efc27a"/><circle cx="292" cy="188" r="94" fill="#fffaf0"/><circle cx="292" cy="188" r="72" fill="#f2542d"/><circle cx="292" cy="188" r="50" fill="#fffaf0"/><circle cx="292" cy="188" r="28" fill="#f2542d"/><path d="M292 188 386 104" stroke="#3b2a12" stroke-width="9" stroke-linecap="round"/><path d="M376 96l18-14 3 19 17 4-18 14-3-18Z" fill="#0f7a63"/><path d="M292 188l20-4-4 20Z" fill="#3b2a12"/><circle cx="374" cy="258" r="28" fill="#0f7a63"/><path d="m361 258 9 9 17-19" fill="none" stroke="#fff" stroke-width="7" stroke-linecap="round" stroke-linejoin="round"/><path d="M204 86Q206.16 95.84 216 98Q206.16 100.16 204 110Q201.84 100.16 192 98Q201.84 95.84 204 86Z" fill="#f2542d"/></svg>