<svg xmlns="http://www.w3.org/2000/svg" viewBox="0 0 600 360"><rect width="600" height="360" fill="#1d1a3a"/><circle cx="300" cy="180" r="146" fill="#2a2656"/><circle cx="300" cy="180" r="170" fill="none" stroke="#6c63c9" stroke-width="3" stroke-dasharray="1 13" stroke-linecap="round"/><circle cx="64" cy="70" r="5" fill="#4a4590"/><circle cx="96" cy="300" r="5" fill="#4a4590"/><circle cx="536" cy="62" r="5" fill="#4a4590"/><circle cx="520" cy="292" r="5" fill="#4a4590"/><circle cx="40" cy="196" r="5" fill="#4a4590"/><circle cx="566" cy="186" r="5" fill="#4a4590"/><g transform="rotate(-16 300 180)"><ellipse cx="300" cy="180" rx="138" ry="36" fill="none" stroke="#ffb42e" stroke-width="9" opacity=".55"/></g><circle cx="300" cy="180" r="80" fill="#ff6b5b"/><path d="M244 140q56-22 112 0" stroke="#ff8f72" stroke-width="12" stroke-linecap="round" fill="none"/><path d="M286 150l46 30-46 30Z" fill="#fff" stroke="#fff" stroke-width="12" stroke-linejoin="round"/><g transform="rotate(-16 300 180)"><path d="M162 180a138 36 0 0 0 276 0" fill="none" stroke="#ffb42e" stroke-width="9" stroke-linecap="round"/></g><path d="M392 78Q394.52 89.48 406 92Q394.52 94.52 392 106Q389.48 94.52 378 92Q389.48 89.48 392 78Z" fill="#fff"/><path d="M206 252Q207.8 260.2 216 262Q207.8 263.8 206 272Q204.2 263.8 196 262Q204.2 260.2 206 252Z" fill="#ffd36b"/><circle cx="222" cy="96" r="3.5" fill="#c9c3ff"/><circle cx="398" cy="268" r="3.5" fill="#c9c3ff"/><circle cx="420" cy="150" r="3.5" fill="#c9c3ff"/></svg>