<svg xmlns="http://www.w3.org/2000/svg" viewBox="0 0 600 360"><rect width="600" height="360" fill="#fde3d9"/><circle cx="300" cy="180" r="146" fill="#f9cdbd"/><circle cx="300" cy="180" r="170" fill="none" stroke="#df8b6f" stroke-width="3" stroke-dasharray="1 13" stroke-linecap="round"/><circle cx="64" cy="70" r="5" fill="#efb09a"/><circle cx="96" cy="300" r="5" fill="#efb09a"/><circle cx="536" cy="62" r="5" fill="#efb09a"/><circle cx="520" cy="292" r="5" fill="#efb09a"/><circle cx="40" cy="196" r="5" fill="#efb09a"/><circle cx="566" cy="186" r="5" fill="#efb09a"/><path d="M336 222l62 62" stroke="#7a2e1c" stroke-width="26" stroke-linecap="round"/><circle cx="282" cy="166" r="84" fill="#fff8f2" stroke="#7a2e1c" stroke-width="16"/><path d="m236 150 46-28 46 28Z" fill="#e2694a"/><path d="M246 156h14v46h-14zm29 0h14v46h-14zm29 0h14v46h-14z" fill="#c4553a"/><path d="M238 204h88v12h-88z" fill="#7a2e1c"/><circle cx="282" cy="139" r="7" fill="#fff8f2"/><circle cx="372" cy="98" r="26" fill="#0f7a63"/><path d="m360 98 8 8 16-17" fill="none" stroke="#fff" stroke-width="7" stroke-linecap="round" stroke-linejoin="round"/><path d="M198 250Q200.16 259.84 210 262Q200.16 264.16 198 274Q195.84 264.16 186 262Q195.84 259.84 198 250Z" fill="#ffb42e"/></svg>